<svg xmlns="http://www.w3.org/2000/svg" x="0px" y="0px" width="600px" height="600px" enable-background="new 100 0 600 600" xml:space="preserve">
  <!-- Background -->
<path fill="#FF5A5F" d="M75,0h450c41.421,0,75,33.579,75,75v450c0,41.421-33.579,75-75,75H75c-41.421,0-75-33.579-75-75V75
	C0,33.579,33.579,0,75,0z"/>
<!-- Globe / language ring -->
<circle fill="none" stroke="#FFFFFF" stroke-width="10" cx="300" cy="276.563" r="159.375"/>
<ellipse fill="none" stroke="#FFFFFF" stroke-width="7" cx="300" cy="276.563" rx="70.313" ry="159.375"/>
<line fill="none" stroke="#FFFFFF" stroke-width="7" x1="140.625" y1="276.563" x2="459.375" y2="276.563"/>
<line fill="none" stroke="#FFFFFF" stroke-width="5" stroke-dasharray="0" x1="159.375" y1="206.25" x2="440.625" y2="206.25"/>
<line fill="none" stroke="#FFFFFF" stroke-width="5" x1="159.375" y1="346.875" x2="440.625" y2="346.875"/>
<!-- Polylang "P" badge — bottom right -->
<circle fill="#FFFFFF" cx="450" cy="450" r="89.063"/>
<path fill="#FF5A5F" d="M491.405,423.958c0,4.951-0.97,9.332-2.91,13.146c-1.939,3.813-4.627,6.969-8.061,9.466
	c-3.39,2.498-7.114,4.326-11.171,5.484c-4.06,1.161-8.362,1.74-12.911,1.74h-10.636v28.764c0,1.563,0.256,2.934,0.769,4.114
	c0.513,1.183,1.572,2.086,3.178,2.71c0.803,0.313,2.218,0.602,4.248,0.869c2.028,0.268,3.89,0.425,5.585,0.469v4.749h-40.738v-4.749
	c1.07-0.089,2.619-0.245,4.649-0.469c2.028-0.223,3.444-0.512,4.247-0.869c1.338-0.579,2.309-1.427,2.91-2.543
	c0.603-1.113,0.903-2.541,0.903-4.281v-68.5c0-1.56-0.224-2.965-0.669-4.214c-0.446-1.248-1.495-2.185-3.145-2.81
	c-1.695-0.579-3.378-0.992-5.05-1.237c-1.673-0.245-3.11-0.412-4.315-0.502v-4.749h43.348c8.83,0,15.999,2.13,21.507,6.388
	C488.651,411.193,491.405,416.868,491.405,423.958z M471.069,440.147c1.516-2.141,2.519-4.359,3.011-6.656
	c0.489-2.297,0.735-4.358,0.735-6.188c0-2.543-0.301-5.128-0.903-7.76c-0.602-2.631-1.639-4.928-3.11-6.891
	c-1.562-2.096-3.612-3.723-6.154-4.883c-2.542-1.159-5.709-1.74-9.499-1.74h-9.432v41.943h6.822c4.816,0,8.73-0.746,11.74-2.241
	C467.29,444.239,469.553,442.378,471.069,440.147z"/>
</svg>
